<?xml version="1.0" encoding="UTF-8" standalone="no"?>
<!DOCTYPE svg PUBLIC "-//W3C//DTD SVG 1.1//EN"
 "http://www.w3.org/Graphics/SVG/1.1/DTD/svg11.dtd">
<!-- Generated by graphviz version 2.43.0 (0)
 -->
<!-- Title: snakemake_dag Pages: 1 -->
<svg width="649pt" height="764pt"
 viewBox="0.00 0.00 648.50 764.00" xmlns="http://www.w3.org/2000/svg" xmlns:xlink="http://www.w3.org/1999/xlink">
<g id="graph0" class="graph" transform="scale(1 1) rotate(0) translate(4 760)">
<title>snakemake_dag</title>
<polygon fill="white" stroke="transparent" points="-4,4 -4,-760 644.5,-760 644.5,4 -4,4"/>
<!-- 1 -->
<g id="node1" class="node">
<title>1</title>
<path fill="none" stroke="#d86e56" stroke-width="2" d="M259,-540C259,-540 219,-540 219,-540 213,-540 207,-534 207,-528 207,-528 207,-516 207,-516 207,-510 213,-504 219,-504 219,-504 259,-504 259,-504 265,-504 271,-510 271,-516 271,-516 271,-528 271,-528 271,-534 265,-540 259,-540"/>
<text text-anchor="middle" x="239" y="-519.5" font-family="sans" font-size="10.00">index_vcf</text>
</g>
<!-- 5 -->
<g id="node5" class="node">
<title>5</title>
<path fill="none" stroke="#56d8a2" stroke-width="2" d="M226,-36C226,-36 196,-36 196,-36 190,-36 184,-30 184,-24 184,-24 184,-12 184,-12 184,-6 190,0 196,0 196,0 226,0 226,0 232,0 238,-6 238,-12 238,-12 238,-24 238,-24 238,-30 232,-36 226,-36"/>
<text text-anchor="middle" x="211" y="-15.5" font-family="sans" font-size="10.00">phase</text>
</g>
<!-- 1&#45;&gt;5 -->
<g id="edge12" class="edge">
<title>1&#45;&gt;5</title>
<path fill="none" stroke="grey" stroke-width="2" d="M215.75,-503.87C206.45,-493.95 196.65,-480.91 190,-468 171.01,-431.14 162,-420.47 162,-379 162,-379 162,-379 162,-161 162,-119.3 178.18,-73.21 192.27,-45.18"/>
<polygon fill="grey" stroke="grey" stroke-width="2" points="195.52,-46.52 197.14,-36.05 189.34,-43.23 195.52,-46.52"/>
</g>
<!-- 7 -->
<g id="node7" class="node">
<title>7</title>
<path fill="none" stroke="#56c1d8" stroke-width="2" d="M382,-468C382,-468 338,-468 338,-468 332,-468 326,-462 326,-456 326,-456 326,-444 326,-444 326,-438 332,-432 338,-432 338,-432 382,-432 382,-432 388,-432 394,-438 394,-444 394,-444 394,-456 394,-456 394,-462 388,-468 382,-468"/>
<text text-anchor="middle" x="360" y="-447.5" font-family="sans" font-size="10.00">merge_vcf</text>
</g>
<!-- 1&#45;&gt;7 -->
<g id="edge14" class="edge">
<title>1&#45;&gt;7</title>
<path fill="none" stroke="grey" stroke-width="2" d="M268.6,-503.88C284.57,-494.64 304.46,-483.13 321.61,-473.21"/>
<polygon fill="grey" stroke="grey" stroke-width="2" points="323.38,-476.23 330.29,-468.19 319.88,-470.17 323.38,-476.23"/>
</g>
<!-- 8 -->
<g id="node8" class="node">
<title>8</title>
<path fill="none" stroke="#56d88a" stroke-width="2" d="M46,-468C46,-468 12,-468 12,-468 6,-468 0,-462 0,-456 0,-456 0,-444 0,-444 0,-438 6,-432 12,-432 12,-432 46,-432 46,-432 52,-432 58,-438 58,-444 58,-444 58,-456 58,-456 58,-462 52,-468 46,-468"/>
<text text-anchor="middle" x="29" y="-447.5" font-family="sans" font-size="10.00">pool_vcf</text>
</g>
<!-- 1&#45;&gt;8 -->
<g id="edge15" class="edge">
<title>1&#45;&gt;8</title>
<path fill="none" stroke="grey" stroke-width="2" d="M206.85,-514.06C172.29,-505.31 116.21,-489.24 67.01,-471.33"/>
<polygon fill="grey" stroke="grey" stroke-width="2" points="68.19,-468.03 57.59,-467.85 65.76,-474.6 68.19,-468.03"/>
</g>
<!-- 9 -->
<g id="node9" class="node">
<title>9</title>
<path fill="none" stroke="#56a9d8" stroke-width="2" d="M566,-468C566,-468 510,-468 510,-468 504,-468 498,-462 498,-456 498,-456 498,-444 498,-444 498,-438 504,-432 510,-432 510,-432 566,-432 566,-432 572,-432 578,-438 578,-444 578,-444 578,-456 578,-456 578,-462 572,-468 566,-468"/>
<text text-anchor="middle" x="538" y="-447.5" font-family="sans" font-size="10.00">reheader_vcf</text>
</g>
<!-- 1&#45;&gt;9 -->
<g id="edge17" class="edge">
<title>1&#45;&gt;9</title>
<path fill="none" stroke="grey" stroke-width="2" d="M271.26,-514.39C317.88,-505.55 406.05,-488.58 480,-468 482.72,-467.24 485.52,-466.41 488.34,-465.54"/>
<polygon fill="grey" stroke="grey" stroke-width="2" points="489.51,-468.84 497.98,-462.47 487.39,-462.17 489.51,-468.84"/>
</g>
<!-- 10 -->
<g id="node10" class="node">
<title>10</title>
<path fill="none" stroke="#d8bc56" stroke-width="2" d="M122,-468C122,-468 88,-468 88,-468 82,-468 76,-462 76,-456 76,-456 76,-444 76,-444 76,-438 82,-432 88,-432 88,-432 122,-432 122,-432 128,-432 134,-438 134,-444 134,-444 134,-456 134,-456 134,-462 128,-468 122,-468"/>
<text text-anchor="middle" x="105" y="-447.5" font-family="sans" font-size="10.00">split_vcf</text>
</g>
<!-- 1&#45;&gt;10 -->
<g id="edge18" class="edge">
<title>1&#45;&gt;10</title>
<path fill="none" stroke="grey" stroke-width="2" d="M206.68,-507C186.84,-497.31 161.5,-484.22 141.04,-473.13"/>
<polygon fill="grey" stroke="grey" stroke-width="2" points="142.46,-469.92 132.01,-468.19 139.1,-476.06 142.46,-469.92"/>
</g>
<!-- 19 -->
<g id="node19" class="node">
<title>19</title>
<path fill="none" stroke="#56d8b1" stroke-width="2" d="M468,-468C468,-468 424,-468 424,-468 418,-468 412,-462 412,-456 412,-456 412,-444 412,-444 412,-438 418,-432 424,-432 424,-432 468,-432 468,-432 474,-432 480,-438 480,-444 480,-444 480,-456 480,-456 480,-462 474,-468 468,-468"/>
<text text-anchor="middle" x="446" y="-447.5" font-family="sans" font-size="10.00">consensus</text>
</g>
<!-- 1&#45;&gt;19 -->
<g id="edge27" class="edge">
<title>1&#45;&gt;19</title>
<path fill="none" stroke="grey" stroke-width="2" d="M271.26,-511.24C302.53,-501.64 351.49,-486.21 402.3,-468.15"/>
<polygon fill="grey" stroke="grey" stroke-width="2" points="403.57,-471.41 411.81,-464.75 401.21,-464.82 403.57,-471.41"/>
</g>
<!-- 20 -->
<g id="node20" class="node">
<title>20</title>
<path fill="none" stroke="#d87d56" stroke-width="2" d="M257.5,-468C257.5,-468 220.5,-468 220.5,-468 214.5,-468 208.5,-462 208.5,-456 208.5,-456 208.5,-444 208.5,-444 208.5,-438 214.5,-432 220.5,-432 220.5,-432 257.5,-432 257.5,-432 263.5,-432 269.5,-438 269.5,-444 269.5,-444 269.5,-456 269.5,-456 269.5,-462 263.5,-468 257.5,-468"/>
<text text-anchor="middle" x="239" y="-447.5" font-family="sans" font-size="10.00">indiv_vcf</text>
</g>
<!-- 1&#45;&gt;20 -->
<g id="edge28" class="edge">
<title>1&#45;&gt;20</title>
<path fill="none" stroke="grey" stroke-width="2" d="M233.08,-503.7C232.29,-495.98 232.06,-486.71 232.4,-478.11"/>
<polygon fill="grey" stroke="grey" stroke-width="2" points="235.9,-478.32 233.1,-468.1 228.92,-477.84 235.9,-478.32"/>
</g>
<!-- 2 -->
<g id="node2" class="node">
<title>2</title>
<path fill="none" stroke="#5682d8" stroke-width="2" d="M389,-612C389,-612 359,-612 359,-612 353,-612 347,-606 347,-600 347,-600 347,-588 347,-588 347,-582 353,-576 359,-576 359,-576 389,-576 389,-576 395,-576 401,-582 401,-588 401,-588 401,-600 401,-600 401,-606 395,-612 389,-612"/>
<text text-anchor="middle" x="374" y="-591.5" font-family="sans" font-size="10.00">filter</text>
</g>
<!-- 2&#45;&gt;1 -->
<g id="edge4" class="edge">
<title>2&#45;&gt;1</title>
<path fill="none" stroke="grey" stroke-width="2" d="M346.68,-578.83C327.53,-568.91 301.61,-555.46 279.99,-544.26"/>
<polygon fill="grey" stroke="grey" stroke-width="2" points="281.51,-541.1 271.03,-539.61 278.29,-547.32 281.51,-541.1"/>
</g>
<!-- 3 -->
<g id="node3" class="node">
<title>3</title>
<path fill="none" stroke="#78d856" stroke-width="2" d="M441,-684C441,-684 403,-684 403,-684 397,-684 391,-678 391,-672 391,-672 391,-660 391,-660 391,-654 397,-648 403,-648 403,-648 441,-648 441,-648 447,-648 453,-654 453,-660 453,-660 453,-672 453,-672 453,-678 447,-684 441,-684"/>
<text text-anchor="middle" x="422" y="-663.5" font-family="sans" font-size="10.00">genotype</text>
</g>
<!-- 3&#45;&gt;2 -->
<g id="edge8" class="edge">
<title>3&#45;&gt;2</title>
<path fill="none" stroke="grey" stroke-width="2" d="M410.13,-647.7C404.5,-639.47 397.65,-629.48 391.43,-620.42"/>
<polygon fill="grey" stroke="grey" stroke-width="2" points="394.27,-618.37 385.73,-612.1 388.5,-622.33 394.27,-618.37"/>
</g>
<!-- 14 -->
<g id="node14" class="node">
<title>14</title>
<path fill="none" stroke="#56d863" stroke-width="2" d="M578,-612C578,-612 498,-612 498,-612 492,-612 486,-606 486,-600 486,-600 486,-588 486,-588 486,-582 492,-576 498,-576 498,-576 578,-576 578,-576 584,-576 590,-582 590,-588 590,-588 590,-600 590,-600 590,-606 584,-612 578,-612"/>
<text text-anchor="middle" x="538" y="-591.5" font-family="sans" font-size="10.00">extract_pool_bam</text>
</g>
<!-- 3&#45;&gt;14 -->
<g id="edge22" class="edge">
<title>3&#45;&gt;14</title>
<path fill="none" stroke="grey" stroke-width="2" d="M450.38,-647.88C465.54,-638.72 484.41,-627.34 500.74,-617.48"/>
<polygon fill="grey" stroke="grey" stroke-width="2" points="502.76,-620.35 509.51,-612.19 499.14,-614.36 502.76,-620.35"/>
</g>
<!-- 4 -->
<g id="node4" class="node">
<title>4</title>
<path fill="none" stroke="#d8d356" stroke-width="2" d="M455.5,-756C455.5,-756 388.5,-756 388.5,-756 382.5,-756 376.5,-750 376.5,-744 376.5,-744 376.5,-732 376.5,-732 376.5,-726 382.5,-720 388.5,-720 388.5,-720 455.5,-720 455.5,-720 461.5,-720 467.5,-726 467.5,-732 467.5,-732 467.5,-744 467.5,-744 467.5,-750 461.5,-756 455.5,-756"/>
<text text-anchor="middle" x="422" y="-735.5" font-family="sans" font-size="10.00">combine_reads</text>
</g>
<!-- 4&#45;&gt;3 -->
<g id="edge9" class="edge">
<title>4&#45;&gt;3</title>
<path fill="none" stroke="grey" stroke-width="2" d="M422,-719.7C422,-711.98 422,-702.71 422,-694.11"/>
<polygon fill="grey" stroke="grey" stroke-width="2" points="425.5,-694.1 422,-684.1 418.5,-694.1 425.5,-694.1"/>
</g>
<!-- 5&#45;&gt;1 -->
<g id="edge7" class="edge">
<title>5&#45;&gt;1</title>
<path fill="none" stroke="grey" stroke-width="2" d="M208.67,-36.05C200.22,-62.28 180,-114.39 180,-161 180,-379 180,-379 180,-379 180,-420.47 189.01,-431.14 208,-468 212.94,-477.58 219.6,-487.24 225.64,-495.63"/>
<polygon fill="grey" stroke="grey" stroke-width="2" points="222.9,-497.82 231.6,-503.87 228.57,-493.72 222.9,-497.82"/>
</g>
<!-- 6 -->
<g id="node6" class="node">
<title>6</title>
<path fill="none" stroke="#56d873" stroke-width="2" d="M329,-396C329,-396 297,-396 297,-396 291,-396 285,-390 285,-384 285,-384 285,-372 285,-372 285,-366 291,-360 297,-360 297,-360 329,-360 329,-360 335,-360 341,-366 341,-372 341,-372 341,-384 341,-384 341,-390 335,-396 329,-396"/>
<text text-anchor="middle" x="313" y="-375.5" font-family="sans" font-size="10.00">sort_vcf</text>
</g>
<!-- 6&#45;&gt;1 -->
<g id="edge6" class="edge">
<title>6&#45;&gt;1</title>
<path fill="none" stroke="grey" stroke-width="2" d="M307.68,-396.32C301.69,-414.71 291.08,-444.31 278,-468 272.78,-477.45 266.1,-487.15 259.75,-495.62"/>
<polygon fill="grey" stroke="grey" stroke-width="2" points="256.91,-493.57 253.57,-503.63 262.45,-497.85 256.91,-493.57"/>
</g>
<!-- 7&#45;&gt;6 -->
<g id="edge13" class="edge">
<title>7&#45;&gt;6</title>
<path fill="none" stroke="grey" stroke-width="2" d="M348.38,-431.7C342.86,-423.47 336.15,-413.48 330.07,-404.42"/>
<polygon fill="grey" stroke="grey" stroke-width="2" points="332.96,-402.46 324.48,-396.1 327.15,-406.36 332.96,-402.46"/>
</g>
<!-- 8&#45;&gt;1 -->
<g id="edge1" class="edge">
<title>8&#45;&gt;1</title>
<path fill="none" stroke="grey" stroke-width="2" d="M58.4,-460.82C64.27,-463.3 70.32,-465.86 76,-468 116.55,-483.25 163.63,-497.53 196.85,-507.42"/>
<polygon fill="grey" stroke="grey" stroke-width="2" points="196.1,-510.85 206.68,-510.34 198.09,-504.14 196.1,-510.85"/>
</g>
<!-- 9&#45;&gt;1 -->
<g id="edge3" class="edge">
<title>9&#45;&gt;1</title>
<path fill="none" stroke="grey" stroke-width="2" d="M497.53,-468.13C422.64,-488.94 333.28,-506.04 281.52,-514.76"/>
<polygon fill="grey" stroke="grey" stroke-width="2" points="280.66,-511.35 271.37,-516.44 281.81,-518.26 280.66,-511.35"/>
</g>
<!-- 10&#45;&gt;1 -->
<g id="edge5" class="edge">
<title>10&#45;&gt;1</title>
<path fill="none" stroke="grey" stroke-width="2" d="M134.36,-463.56C154.68,-473.4 181.7,-487.34 203.25,-499.03"/>
<polygon fill="grey" stroke="grey" stroke-width="2" points="201.66,-502.15 212.12,-503.88 205.02,-496.01 201.66,-502.15"/>
</g>
<!-- 11 -->
<g id="node11" class="node">
<title>11</title>
<path fill="none" stroke="#5692d8" stroke-width="2" d="M561.5,-540C561.5,-540 514.5,-540 514.5,-540 508.5,-540 502.5,-534 502.5,-528 502.5,-528 502.5,-516 502.5,-516 502.5,-510 508.5,-504 514.5,-504 514.5,-504 561.5,-504 561.5,-504 567.5,-504 573.5,-510 573.5,-516 573.5,-516 573.5,-528 573.5,-528 573.5,-534 567.5,-540 561.5,-540"/>
<text text-anchor="middle" x="538" y="-519.5" font-family="sans" font-size="10.00">header_file</text>
</g>
<!-- 11&#45;&gt;9 -->
<g id="edge16" class="edge">
<title>11&#45;&gt;9</title>
<path fill="none" stroke="grey" stroke-width="2" d="M538,-503.7C538,-495.98 538,-486.71 538,-478.11"/>
<polygon fill="grey" stroke="grey" stroke-width="2" points="541.5,-478.1 538,-468.1 534.5,-478.1 541.5,-478.1"/>
</g>
<!-- 12 -->
<g id="node12" class="node">
<title>12</title>
<path fill="none" stroke="#56d0d8" stroke-width="2" d="M388.5,-180C388.5,-180 337.5,-180 337.5,-180 331.5,-180 325.5,-174 325.5,-168 325.5,-168 325.5,-156 325.5,-156 325.5,-150 331.5,-144 337.5,-144 337.5,-144 388.5,-144 388.5,-144 394.5,-144 400.5,-150 400.5,-156 400.5,-156 400.5,-168 400.5,-168 400.5,-174 394.5,-180 388.5,-180"/>
<text text-anchor="middle" x="363" y="-159.5" font-family="sans" font-size="10.00">merge_bam</text>
</g>
<!-- 12&#45;&gt;5 -->
<g id="edge11" class="edge">
<title>12&#45;&gt;5</title>
<path fill="none" stroke="grey" stroke-width="2" d="M359.8,-143.86C355.34,-124.25 345.5,-92.25 326,-72 304.83,-50.01 272.78,-36.28 247.9,-28.32"/>
<polygon fill="grey" stroke="grey" stroke-width="2" points="248.65,-24.89 238.06,-25.35 246.63,-31.59 248.65,-24.89"/>
</g>
<!-- 15 -->
<g id="node15" class="node">
<title>15</title>
<path fill="none" stroke="#d85656" stroke-width="2" d="M305,-108C305,-108 243,-108 243,-108 237,-108 231,-102 231,-96 231,-96 231,-84 231,-84 231,-78 237,-72 243,-72 243,-72 305,-72 305,-72 311,-72 317,-78 317,-84 317,-84 317,-96 317,-96 317,-102 311,-108 305,-108"/>
<text text-anchor="middle" x="274" y="-87.5" font-family="sans" font-size="10.00">index_bamfile</text>
</g>
<!-- 12&#45;&gt;15 -->
<g id="edge23" class="edge">
<title>12&#45;&gt;15</title>
<path fill="none" stroke="grey" stroke-width="2" d="M341,-143.7C329.79,-134.88 316,-124.03 303.85,-114.47"/>
<polygon fill="grey" stroke="grey" stroke-width="2" points="305.77,-111.54 295.75,-108.1 301.44,-117.04 305.77,-111.54"/>
</g>
<!-- 13 -->
<g id="node13" class="node">
<title>13</title>
<path fill="none" stroke="#c6d856" stroke-width="2" d="M628.5,-324C628.5,-324 571.5,-324 571.5,-324 565.5,-324 559.5,-318 559.5,-312 559.5,-312 559.5,-300 559.5,-300 559.5,-294 565.5,-288 571.5,-288 571.5,-288 628.5,-288 628.5,-288 634.5,-288 640.5,-294 640.5,-300 640.5,-300 640.5,-312 640.5,-312 640.5,-318 634.5,-324 628.5,-324"/>
<text text-anchor="middle" x="600" y="-303.5" font-family="sans" font-size="10.00">rename_bam</text>
</g>
<!-- 13&#45;&gt;12 -->
<g id="edge20" class="edge">
<title>13&#45;&gt;12</title>
<path fill="none" stroke="grey" stroke-width="2" d="M574.04,-287.97C545.96,-269.7 499.75,-240.08 459,-216 441.3,-205.54 421.45,-194.47 404.41,-185.17"/>
<polygon fill="grey" stroke="grey" stroke-width="2" points="405.72,-181.9 395.27,-180.2 402.38,-188.05 405.72,-181.9"/>
</g>
<!-- 14&#45;&gt;13 -->
<g id="edge21" class="edge">
<title>14&#45;&gt;13</title>
<path fill="none" stroke="grey" stroke-width="2" d="M557.04,-575.75C566.27,-566.19 576.52,-553.52 582,-540 610.29,-470.18 607.01,-379.06 603.08,-334.27"/>
<polygon fill="grey" stroke="grey" stroke-width="2" points="606.55,-333.8 602.11,-324.18 599.58,-334.47 606.55,-333.8"/>
</g>
<!-- 15&#45;&gt;5 -->
<g id="edge10" class="edge">
<title>15&#45;&gt;5</title>
<path fill="none" stroke="grey" stroke-width="2" d="M258.43,-71.7C250.8,-63.22 241.48,-52.86 233.12,-43.58"/>
<polygon fill="grey" stroke="grey" stroke-width="2" points="235.69,-41.2 226.39,-36.1 230.48,-45.88 235.69,-41.2"/>
</g>
<!-- 16 -->
<g id="node16" class="node">
<title>16</title>
<path fill="none" stroke="#88d856" stroke-width="2" d="M438,-252C438,-252 382,-252 382,-252 376,-252 370,-246 370,-240 370,-240 370,-228 370,-228 370,-222 376,-216 382,-216 382,-216 438,-216 438,-216 444,-216 450,-222 450,-228 450,-228 450,-240 450,-240 450,-246 444,-252 438,-252"/>
<text text-anchor="middle" x="410" y="-231.5" font-family="sans" font-size="10.00">sam_to_bam</text>
</g>
<!-- 16&#45;&gt;12 -->
<g id="edge19" class="edge">
<title>16&#45;&gt;12</title>
<path fill="none" stroke="grey" stroke-width="2" d="M398.38,-215.7C392.86,-207.47 386.15,-197.48 380.07,-188.42"/>
<polygon fill="grey" stroke="grey" stroke-width="2" points="382.96,-186.46 374.48,-180.1 377.15,-190.36 382.96,-186.46"/>
</g>
<!-- 17 -->
<g id="node17" class="node">
<title>17</title>
<path fill="none" stroke="#d89556" stroke-width="2" d="M433.5,-324C433.5,-324 392.5,-324 392.5,-324 386.5,-324 380.5,-318 380.5,-312 380.5,-312 380.5,-300 380.5,-300 380.5,-294 386.5,-288 392.5,-288 392.5,-288 433.5,-288 433.5,-288 439.5,-288 445.5,-294 445.5,-300 445.5,-300 445.5,-312 445.5,-312 445.5,-318 439.5,-324 433.5,-324"/>
<text text-anchor="middle" x="413" y="-303.5" font-family="sans" font-size="10.00">map_read</text>
</g>
<!-- 17&#45;&gt;16 -->
<g id="edge24" class="edge">
<title>17&#45;&gt;16</title>
<path fill="none" stroke="grey" stroke-width="2" d="M412.26,-287.7C411.93,-279.98 411.53,-270.71 411.16,-262.11"/>
<polygon fill="grey" stroke="grey" stroke-width="2" points="414.66,-261.95 410.73,-252.1 407.66,-262.25 414.66,-261.95"/>
</g>
<!-- 18 -->
<g id="node18" class="node">
<title>18</title>
<path fill="none" stroke="#d8ac56" stroke-width="2" d="M444.5,-396C444.5,-396 387.5,-396 387.5,-396 381.5,-396 375.5,-390 375.5,-384 375.5,-384 375.5,-372 375.5,-372 375.5,-366 381.5,-360 387.5,-360 387.5,-360 444.5,-360 444.5,-360 450.5,-360 456.5,-366 456.5,-372 456.5,-372 456.5,-384 456.5,-384 456.5,-390 450.5,-396 444.5,-396"/>
<text text-anchor="middle" x="416" y="-375.5" font-family="sans" font-size="10.00">rename_read</text>
</g>
<!-- 18&#45;&gt;17 -->
<g id="edge25" class="edge">
<title>18&#45;&gt;17</title>
<path fill="none" stroke="grey" stroke-width="2" d="M415.26,-359.7C414.93,-351.98 414.53,-342.71 414.16,-334.11"/>
<polygon fill="grey" stroke="grey" stroke-width="2" points="417.66,-333.95 413.73,-324.1 410.66,-334.25 417.66,-333.95"/>
</g>
<!-- 19&#45;&gt;18 -->
<g id="edge26" class="edge">
<title>19&#45;&gt;18</title>
<path fill="none" stroke="grey" stroke-width="2" d="M438.58,-431.7C435.21,-423.81 431.13,-414.3 427.38,-405.55"/>
<polygon fill="grey" stroke="grey" stroke-width="2" points="430.49,-403.92 423.33,-396.1 424.05,-406.67 430.49,-403.92"/>
</g>
<!-- 20&#45;&gt;1 -->
<g id="edge2" class="edge">
<title>20&#45;&gt;1</title>
<path fill="none" stroke="grey" stroke-width="2" d="M244.9,-468.1C245.7,-475.79 245.94,-485.05 245.6,-493.67"/>
<polygon fill="grey" stroke="grey" stroke-width="2" points="242.11,-493.48 244.92,-503.7 249.09,-493.96 242.11,-493.48"/>
</g>
</g>
</svg>
